<svg width="75" height="73" viewBox="0 0 75 73" fill="none" xmlns="http://www.w3.org/2000/svg">
<g clip-path="url(#clip0_23_194)">
<path d="M13.2812 5.88391e-06H61.7187C63.4633 -0.00163559 65.1911 0.340187 66.8032 1.00591C68.4153 1.67163 69.8801 2.64819 71.1137 3.87968C72.3473 5.11118 73.3255 6.57344 73.9924 8.18279C74.6592 9.79213 75.0016 11.517 75 13.2586V59.7415C75.0016 61.4831 74.6592 63.2079 73.9924 64.8172C73.3255 66.4266 72.3473 67.8888 71.1137 69.1203C69.8801 70.3518 68.4153 71.3284 66.8032 71.9941C65.1911 72.6598 63.4633 73.0016 61.7187 73H13.2812C11.5366 73.0016 9.80886 72.6598 8.19677 71.9941C6.58467 71.3284 5.1199 70.3518 3.8863 69.1203C2.65269 67.8888 1.67446 66.4266 1.0076 64.8172C0.340739 63.2079 -0.0016689 61.4831 -2.46236e-05 59.7415V13.2586C-0.0016689 11.517 0.340739 9.79213 1.0076 8.18279C1.67446 6.57344 2.65269 5.11118 3.8863 3.87968C5.1199 2.64819 6.58467 1.67163 8.19677 1.00591C9.80886 0.340187 11.5366 -0.00163559 13.2812 5.88391e-06V5.88391e-06Z" fill="#00005B"/>
<path d="M30.125 43.6751H18.5L16.125 51.0375C16.0985 51.1712 16.0228 51.2901 15.913 51.3709C15.8031 51.4517 15.667 51.4886 15.5312 51.4743H9.65625C9.3125 51.4743 9.21875 51.2871 9.3125 50.9128L19.375 22.1183C19.4687 21.8063 19.5625 21.5256 19.6875 21.1512C19.8133 20.4826 19.876 19.8037 19.875 19.1234C19.8656 19.0453 19.8862 18.9665 19.9326 18.9029C19.9789 18.8393 20.0477 18.7955 20.125 18.7803H28.2187C28.4375 18.7803 28.5937 18.8739 28.625 19.0298L40.0312 51.0063C40.125 51.3495 40.0312 51.5055 39.7187 51.5055H33.1875C33.077 51.5161 32.9664 51.4875 32.8749 51.4248C32.7835 51.362 32.7171 51.2691 32.6875 51.1623L30.125 43.6751ZM20.3125 37.467H28.25C28.0625 36.8119 27.8125 36.032 27.5312 35.2209C27.25 34.4098 26.9687 33.4739 26.6875 32.538C26.4062 31.6021 26.0937 30.635 25.7812 29.6679C25.4687 28.7008 25.1875 27.7961 24.9375 26.8914C24.6875 25.9867 24.4687 25.2068 24.25 24.4581H24.1875C23.9066 25.8177 23.552 27.1612 23.125 28.4824C22.6562 29.9798 22.1875 31.5397 21.6875 33.0995C21.2812 34.6905 20.7812 36.1568 20.3125 37.467Z" fill="#9999FF"/>
<path d="M58.5625 40.805H48.6562C48.7745 41.7895 49.105 42.7367 49.625 43.5815C50.1772 44.4223 50.973 45.0752 51.9062 45.4533C53.1694 45.9926 54.5327 46.2584 55.9062 46.2332C56.9975 46.2132 58.0849 46.0984 59.1562 45.89C60.1093 45.7655 61.0433 45.5245 61.9375 45.1725C62.0937 45.0477 62.1875 45.1101 62.1875 45.4221V50.1952C62.182 50.322 62.161 50.4477 62.125 50.5695C62.0685 50.6571 61.9939 50.7315 61.9062 50.7879C60.9068 51.2261 59.8573 51.5404 58.7812 51.7238C57.3194 52.0044 55.832 52.1299 54.3437 52.0982C51.9687 52.0982 49.9687 51.7238 48.3437 51.0063C46.8146 50.3437 45.465 49.3279 44.4062 48.0426C43.4168 46.8407 42.6832 45.4502 42.25 43.9558C41.3343 40.8435 41.3778 37.5282 42.375 34.4409C42.8733 32.8789 43.6692 31.4277 44.7187 30.167C45.7522 28.9203 47.0416 27.9096 48.5 27.2033C49.9687 26.4858 51.7187 26.2362 53.7187 26.2362C55.385 26.1976 57.0392 26.5279 58.5625 27.2033C59.8427 27.7573 60.9688 28.6139 61.8437 29.699C62.6744 30.7645 63.3092 31.9686 63.7187 33.2554C64.1161 34.485 64.3165 35.7694 64.3125 37.0614C64.3125 37.8101 64.2812 38.4652 64.25 39.058C64.2187 39.6507 64.1562 40.0875 64.125 40.3682C64.1112 40.4763 64.0599 40.5761 63.9799 40.6502C63.9 40.7244 63.7965 40.7681 63.6875 40.7738C63.5 40.7738 63.1562 40.805 62.6562 40.8362C62.0546 40.9044 61.4493 40.9356 60.8437 40.9298C60.125 40.9298 59.375 40.805 58.5625 40.805ZM48.6562 36.2503H55.25C56.0625 36.2503 56.6562 36.2503 57.0312 36.2191C57.2881 36.1977 57.5353 36.1119 57.75 35.9695V35.6576C57.7513 35.2651 57.6879 34.8752 57.5625 34.5033C57.2889 33.6497 56.7447 32.908 56.0118 32.3903C55.279 31.8726 54.3974 31.6068 53.5 31.6332C52.6519 31.5857 51.8081 31.7843 51.0706 32.205C50.3331 32.6258 49.7333 33.2506 49.3437 34.0041C48.9792 34.7047 48.7462 35.466 48.6562 36.2503V36.2503Z" fill="#9999FF"/>
</g>
<defs>
<clipPath id="clip0_23_194">
<rect width="75" height="73" fill="white"/>
</clipPath>
</defs>
</svg>
