<svg width="100%" height="100%" viewBox="0 0 512 512" fill="currentColor" xmlns="http://www.w3.org/2000/svg">
  <path
    d="M192 32C192 49.7 206.3 64 224 64C347.7 64 448 164.3 448 288C448 305.7 462.3 320 480 320C497.7 320 512 305.7 512 288C512 128.9 383.1 0 224 0C206.3 0 192 14.3 192 32ZM192 128C192 145.7 206.3 160 224 160C294.7 160 352 217.3 352 288C352 305.7 366.3 320 384 320C401.7 320 416 305.7 416 288C416 182 330 96 224 96C206.3 96 192 110.3 192 128ZM96 144C96 117.5 74.5 96 48 96C21.5 96 0 117.5 0 144V368C0 447.5 64.5 512 144 512C223.5 512 288 447.5 288 368C288 288.5 223.5 224 144 224H128V320H144C170.5 320 192 341.5 192 368C192 394.5 170.5 416 144 416C117.5 416 96 394.5 96 368V144Z"
    fill="current" />
</svg>