<svg width="100%" height="100%" viewBox="0 0 30 23" fill="currentColor" xmlns="http://www.w3.org/2000/svg">
<path d="M25.4333 1.93001C25.4245 1.91352 25.41 1.90082 25.3925 1.89429C23.4489 1.00239 21.3979 0.366165 19.2907 0.00150467C19.2718 -0.00196501 19.2522 0.000600925 19.2348 0.00884011C19.2174 0.0170793 19.2031 0.0305753 19.1938 0.0474215C18.9143 0.554695 18.6606 1.07575 18.4336 1.60859C16.161 1.26364 13.8493 1.26364 11.5767 1.60859C11.3488 1.07443 11.0916 0.553248 10.8063 0.0474215C10.7965 0.0310773 10.782 0.018002 10.7648 0.00983404C10.7475 0.00166605 10.7283 -0.00123143 10.7094 0.00150467C8.59853 0.364522 6.54392 1.0008 4.59735 1.89429C4.58028 1.90153 4.56598 1.91405 4.55654 1.93001C0.668923 7.74102 -0.397365 13.4041 0.123024 19.0008C0.124498 19.0149 0.128888 19.0285 0.135915 19.0408C0.142941 19.0531 0.152451 19.0638 0.163839 19.0722C2.42837 20.7472 4.96087 22.0256 7.65337 22.8527C7.67272 22.8587 7.69346 22.8585 7.71267 22.8521C7.73189 22.8457 7.74862 22.8334 7.7605 22.817C8.33821 22.0306 8.85012 21.1978 9.29106 20.3273C9.29693 20.3153 9.30027 20.3023 9.30086 20.2889C9.30145 20.2756 9.29928 20.2623 9.29449 20.2498C9.2897 20.2374 9.28239 20.2261 9.27303 20.2166C9.26366 20.2071 9.25243 20.1996 9.24004 20.1947C8.43116 19.8847 7.64812 19.5111 6.89829 19.0773C6.88504 19.0692 6.87393 19.0581 6.86591 19.0448C6.85788 19.0315 6.85317 19.0164 6.85217 19.0009C6.85117 18.9854 6.85391 18.9699 6.86016 18.9557C6.86641 18.9415 6.87599 18.9289 6.88809 18.9192C7.04624 18.8018 7.2044 18.6794 7.35236 18.557C7.36541 18.5455 7.38145 18.538 7.39861 18.5353C7.41577 18.5326 7.43334 18.5348 7.44929 18.5417C12.3573 20.7814 17.6734 20.7814 22.5253 18.5417C22.5408 18.5341 22.5581 18.531 22.5752 18.5328C22.5924 18.5346 22.6086 18.5412 22.6222 18.5519C22.7702 18.6743 22.9283 18.8018 23.0865 18.9192C23.0986 18.9289 23.1082 18.9415 23.1144 18.9557C23.1207 18.9699 23.1234 18.9854 23.1224 19.0009C23.1214 19.0164 23.1167 19.0315 23.1087 19.0448C23.1006 19.0581 23.0895 19.0692 23.0763 19.0773C22.3284 19.5133 21.545 19.8854 20.7345 20.1896C20.7221 20.1945 20.7109 20.202 20.7015 20.2115C20.6922 20.221 20.6849 20.2323 20.6801 20.2447C20.6753 20.2572 20.6731 20.2705 20.6737 20.2838C20.6743 20.2972 20.6776 20.3102 20.6835 20.3222C21.1321 21.1884 21.6437 22.0205 22.2141 22.8119C22.226 22.8283 22.2427 22.8406 22.2619 22.847C22.2811 22.8534 22.3019 22.8536 22.3212 22.8476C25.0215 22.0242 27.5613 20.7456 29.8311 19.0671C29.8428 19.059 29.8524 19.0483 29.8595 19.036C29.8665 19.0236 29.8708 19.0099 29.872 18.9957C30.4944 12.5317 28.821 6.91452 25.4333 1.93001ZM10.0257 15.5928C8.54619 15.5928 7.33195 14.2357 7.33195 12.5725C7.33195 10.9093 8.52578 9.54708 10.0257 9.54708C11.541 9.54708 12.745 10.9144 12.7195 12.5674C12.7195 14.2357 11.5257 15.5928 10.0257 15.5928ZM19.9948 15.5928C18.5152 15.5928 17.301 14.2357 17.301 12.5725C17.301 10.9093 18.4897 9.54708 19.9948 9.54708C21.51 9.54708 22.714 10.9144 22.6885 12.5674C22.6885 14.2357 21.5049 15.5928 19.9948 15.5928Z" fill="current"/>
</svg>
