<svg width="75" height="73" viewBox="0 0 75 73" fill="none" xmlns="http://www.w3.org/2000/svg">
<g clip-path="url(#clip0_23_242)">
<path d="M13.2812 5.88391e-06H61.7187C63.4633 -0.00163559 65.1911 0.340187 66.8032 1.00591C68.4153 1.67163 69.8801 2.64819 71.1137 3.87968C72.3473 5.11118 73.3255 6.57344 73.9924 8.18279C74.6592 9.79213 75.0016 11.517 75 13.2586V59.7415C75.0016 61.4831 74.6592 63.2079 73.9924 64.8172C73.3255 66.4266 72.3473 67.8888 71.1137 69.1203C69.8801 70.3518 68.4153 71.3284 66.8032 71.9941C65.1911 72.6598 63.4633 73.0016 61.7187 73H13.2812C11.5366 73.0016 9.80886 72.6598 8.19677 71.9941C6.58467 71.3284 5.1199 70.3518 3.8863 69.1203C2.65269 67.8888 1.67446 66.4266 1.0076 64.8172C0.340739 63.2079 -0.0016689 61.4831 -2.46236e-05 59.7415V13.2586C-0.0016689 11.517 0.340739 9.79213 1.0076 8.18279C1.67446 6.57344 2.65269 5.11118 3.8863 3.87968C5.1199 2.64819 6.58467 1.67163 8.19677 1.00591C9.80886 0.340187 11.5366 -0.00163559 13.2812 5.88391e-06V5.88391e-06Z" fill="#000B1D"/>
<path d="M29.6875 59.8974C34.0022 59.8974 37.5 56.4056 37.5 52.0982V44.2991H29.6875C25.3728 44.2991 21.875 47.7909 21.875 52.0982C21.875 56.4056 25.3728 59.8974 29.6875 59.8974Z" fill="#0ACF83"/>
<path d="M21.875 36.5001C21.875 32.1927 25.3728 28.7009 29.6875 28.7009H37.5V44.2992H29.6875C25.3728 44.2992 21.875 40.8074 21.875 36.5001Z" fill="#A259FF"/>
<path d="M21.875 20.9017C21.875 16.5943 25.3728 13.1025 29.6875 13.1025H37.5V28.7008H29.6875C25.3728 28.7008 21.875 25.209 21.875 20.9017Z" fill="#F24E1E"/>
<path d="M37.5 13.1025H45.3125C49.6272 13.1025 53.125 16.5943 53.125 20.9017C53.125 25.209 49.6272 28.7008 45.3125 28.7008H37.5V13.1025Z" fill="#FF7262"/>
<path d="M53.125 36.5001C53.125 40.8074 49.6272 44.2992 45.3125 44.2992C40.9978 44.2992 37.5 40.8074 37.5 36.5001C37.5 32.1927 40.9978 28.7009 45.3125 28.7009C49.6272 28.7009 53.125 32.1927 53.125 36.5001Z" fill="#1ABCFE"/>
</g>
<defs>
<clipPath id="clip0_23_242">
<rect width="75" height="73" fill="white"/>
</clipPath>
</defs>
</svg>
