<svg width="100%" height="100%" viewBox="0 0 30 22" fill="currentColor" xmlns="http://www.w3.org/2000/svg">
<path d="M2.8125 0C1.25977 0 0 1.23177 0 2.75C0 3.6151 0.416016 4.42865 1.125 4.95L13.875 14.3C14.543 14.787 15.457 14.787 16.125 14.3L28.875 4.95C29.584 4.42865 30 3.6151 30 2.75C30 1.23177 28.7402 0 27.1875 0H2.8125ZM0 6.41667V18.3333C0 20.3557 1.68164 22 3.75 22H26.25C28.3184 22 30 20.3557 30 18.3333V6.41667L17.25 15.7667C15.9141 16.7464 14.0859 16.7464 12.75 15.7667L0 6.41667Z" fill="current"/>
</svg>
