<svg width="69" height="73" viewBox="0 0 69 73" fill="none" xmlns="http://www.w3.org/2000/svg">
<g clip-path="url(#clip0_23_399)">
<path d="M40.8213 0.000939547C34.1565 0.0492622 26.5697 1.72046 20.1391 5.82525C11.5649 11.2982 5.04668 21.0977 2.12063 28.993C-0.805194 36.8883 -0.138743 42.8792 0.796421 47.3167C1.73159 51.7543 2.93535 54.6387 4.29641 56.3397C5.65758 58.0407 7.17615 58.5583 8.70385 58.549C10.2317 58.5398 11.7686 58.0035 13.5926 56.6168C15.4166 55.2301 17.5277 52.9929 19.2777 51.1993C21.0277 49.4059 22.4166 48.0562 23.5741 47.3813C24.7316 46.7063 25.6574 46.7063 26.6297 47.0114C27.6019 47.3166 28.6204 47.9267 29.3426 48.6664C30.0647 49.406 30.4908 50.275 30.6204 51.2549C30.75 52.2349 30.5832 53.3257 29.8981 54.2964C29.2129 55.267 28.0094 56.1176 26.9908 57.6893C25.9723 59.261 25.1387 61.5537 25.574 63.6986C26.0092 65.8434 27.713 67.8404 29.5834 68.9681C31.4538 70.096 33.4907 70.3549 39.1943 68.0621C44.8979 65.7694 54.2681 60.9251 60.2497 53.8805C66.2311 46.8358 68.8235 37.591 68.9903 29.7512C69.1569 21.9115 66.8979 15.4772 63.3239 10.4293C59.7498 5.38145 54.861 1.72057 47.1018 0.46319C45.162 0.148763 43.0428 -0.0152046 40.8212 0.000829723L40.8213 0.000939547ZM37.7174 34.6351C38.9599 34.6351 40.1516 35.1279 41.0302 36.0052C41.9088 36.8824 42.4024 38.0722 42.4024 39.3129C42.4025 39.9272 42.2813 40.5355 42.0459 41.1031C41.8104 41.6706 41.4653 42.1863 41.0303 42.6207C40.5952 43.0551 40.0788 43.3997 39.5103 43.6348C38.9419 43.8699 38.3327 43.9909 37.7174 43.9909C37.1021 43.9909 36.4929 43.8699 35.9244 43.6348C35.356 43.3997 34.8395 43.0551 34.4045 42.6207C33.9694 42.1863 33.6243 41.6706 33.3889 41.1031C33.1535 40.5355 33.0323 39.9272 33.0323 39.3129C33.0323 38.0722 33.5259 36.8824 34.4045 36.0051C35.2832 35.1278 36.4748 34.635 37.7174 34.635V34.6351Z" fill="url(#paint0_linear_23_399)"/>
<path d="M56.4903 32.3804C55.1157 32.3804 51.277 33.7539 51.3423 35.4574L52.6756 70.2545C52.7409 71.958 53.7824 72.999 55.1569 72.999C56.5315 72.999 57.5729 71.958 57.638 70.2545L58.9665 35.4624C59.0315 33.7589 57.8648 32.3804 56.4903 32.3804Z" fill="url(#paint1_linear_23_399)"/>
<path d="M58.9726 31.6079H51.3441V36.4716H58.9726V31.6079Z" fill="url(#paint2_linear_23_399)"/>
<path d="M48.3204 20.5867C48.0507 20.5861 47.7844 20.6468 47.5417 20.7643C47.299 20.8817 47.0863 21.0528 46.9197 21.2646C46.7531 21.4763 46.637 21.7232 46.5801 21.9864C46.5233 22.2496 46.5272 22.5223 46.5916 22.7838C48.003 25.8995 49.8858 28.9783 51.3426 31.6071H58.9711L63.2611 23.6059C63.4945 23.2007 63.7038 22.7514 63.7102 22.3642C63.7107 22.1306 63.6651 21.8992 63.5758 21.6833C63.4865 21.4674 63.3553 21.2713 63.1899 21.1061C63.0245 20.941 62.828 20.8101 62.6118 20.7209C62.3956 20.6318 62.1638 20.5862 61.9299 20.5867H48.3204Z" fill="url(#paint3_linear_23_399)"/>
<g filter="url(#filter0_f_23_399)">
<path d="M10.4098 42.8967C13.876 42.8967 16.6859 40.0911 16.6859 36.6302C16.6859 33.1694 13.876 30.3638 10.4098 30.3638C6.94359 30.3638 4.13367 33.1694 4.13367 36.6302C4.13367 40.0911 6.94359 42.8967 10.4098 42.8967Z" fill="#808080"/>
</g>
<path d="M10.3848 42.4599C13.851 42.4599 16.661 39.6543 16.661 36.1935C16.661 32.7326 13.851 29.927 10.3848 29.927C6.91862 29.927 4.1087 32.7326 4.1087 36.1935C4.1087 39.6543 6.91862 42.4599 10.3848 42.4599Z" fill="url(#paint4_linear_23_399)"/>
<g filter="url(#filter1_f_23_399)">
<path d="M18.4237 27.0896C21.8899 27.0896 24.6998 24.284 24.6998 20.8231C24.6998 17.3622 21.8899 14.5566 18.4237 14.5566C14.9574 14.5566 12.1475 17.3622 12.1475 20.8231C12.1475 24.284 14.9574 27.0896 18.4237 27.0896Z" fill="#808080"/>
</g>
<path d="M18.3987 26.6528C21.8649 26.6528 24.6748 23.8472 24.6748 20.3863C24.6748 16.9255 21.8649 14.1199 18.3987 14.1199C14.9325 14.1199 12.1226 16.9255 12.1226 20.3863C12.1226 23.8472 14.9325 26.6528 18.3987 26.6528Z" fill="url(#paint5_linear_23_399)"/>
<g filter="url(#filter2_f_23_399)">
<path d="M35.7086 20.5786C39.1748 20.5786 41.9847 17.773 41.9847 14.3121C41.9847 10.8512 39.1748 8.04565 35.7086 8.04565C32.2424 8.04565 29.4324 10.8512 29.4324 14.3121C29.4324 17.773 32.2424 20.5786 35.7086 20.5786Z" fill="#666666"/>
</g>
<path d="M35.6836 20.1418C39.1498 20.1418 41.9597 17.3362 41.9597 13.8754C41.9597 10.4145 39.1498 7.60889 35.6836 7.60889C32.2174 7.60889 29.4075 10.4145 29.4075 13.8754C29.4075 17.3362 32.2174 20.1418 35.6836 20.1418Z" fill="url(#paint6_linear_23_399)"/>
</g>
<defs>
<filter id="filter0_f_23_399" x="-2.22571" y="24.0044" width="25.271" height="25.2517" filterUnits="userSpaceOnUse" color-interpolation-filters="sRGB">
<feFlood flood-opacity="0" result="BackgroundImageFix"/>
<feBlend mode="normal" in="SourceGraphic" in2="BackgroundImageFix" result="shape"/>
<feGaussianBlur stdDeviation="3.17969" result="effect1_foregroundBlur_23_399"/>
</filter>
<filter id="filter1_f_23_399" x="5.78814" y="8.19726" width="25.271" height="25.2517" filterUnits="userSpaceOnUse" color-interpolation-filters="sRGB">
<feFlood flood-opacity="0" result="BackgroundImageFix"/>
<feBlend mode="normal" in="SourceGraphic" in2="BackgroundImageFix" result="shape"/>
<feGaussianBlur stdDeviation="3.17969" result="effect1_foregroundBlur_23_399"/>
</filter>
<filter id="filter2_f_23_399" x="23.0731" y="1.68628" width="25.271" height="25.2517" filterUnits="userSpaceOnUse" color-interpolation-filters="sRGB">
<feFlood flood-opacity="0" result="BackgroundImageFix"/>
<feBlend mode="normal" in="SourceGraphic" in2="BackgroundImageFix" result="shape"/>
<feGaussianBlur stdDeviation="3.17969" result="effect1_foregroundBlur_23_399"/>
</filter>
<linearGradient id="paint0_linear_23_399" x1="16.1947" y1="6.15806" x2="62.4387" y2="65.8015" gradientUnits="userSpaceOnUse">
<stop stop-color="#3AC8F3"/>
<stop offset="1" stop-color="#1B9DE3"/>
</linearGradient>
<linearGradient id="paint1_linear_23_399" x1="64.5269" y1="36.9991" x2="54.666" y2="70.1782" gradientUnits="userSpaceOnUse">
<stop stop-color="#78400A"/>
<stop offset="1" stop-color="#9A5605"/>
</linearGradient>
<linearGradient id="paint2_linear_23_399" x1="51.084" y1="37.5546" x2="60.9647" y2="31.5503" gradientUnits="userSpaceOnUse">
<stop stop-color="#ECECEC"/>
<stop offset="1" stop-color="#9396A0"/>
</linearGradient>
<linearGradient id="paint3_linear_23_399" x1="50.6381" y1="20.3581" x2="61.732" y2="31.4691" gradientUnits="userSpaceOnUse">
<stop stop-color="#F0D69F"/>
<stop offset="1" stop-color="#C39360"/>
</linearGradient>
<linearGradient id="paint4_linear_23_399" x1="4.92997" y1="30.2324" x2="16.5787" y2="41.8991" gradientUnits="userSpaceOnUse">
<stop stop-color="#DB5317"/>
<stop offset="1" stop-color="#C23807"/>
</linearGradient>
<linearGradient id="paint5_linear_23_399" x1="13.93" y1="13.1474" x2="23.4679" y2="24.8106" gradientUnits="userSpaceOnUse">
<stop stop-color="#4FB412"/>
<stop offset="1" stop-color="#188313"/>
</linearGradient>
<linearGradient id="paint6_linear_23_399" x1="31.1523" y1="10.1521" x2="41.6934" y2="19.5982" gradientUnits="userSpaceOnUse">
<stop stop-color="#FDDD01"/>
<stop offset="1" stop-color="#F7A810"/>
</linearGradient>
<clipPath id="clip0_23_399">
<rect width="69" height="73" fill="white"/>
</clipPath>
</defs>
</svg>
