<svg width="75" height="74" viewBox="0 0 75 74" fill="none" xmlns="http://www.w3.org/2000/svg">
<path d="M13.2813 5.89399e-06H61.7187C63.4633 -0.00163839 65.1911 0.340769 66.8032 1.00763C68.4153 1.67449 69.8801 2.65272 71.1137 3.88633C72.3473 5.11993 73.3255 6.5847 73.9924 8.1968C74.6592 9.80889 75.0016 11.5367 75 13.2813V59.8437C75.0016 61.5883 74.6592 63.3161 73.9924 64.9282C73.3255 66.5403 72.3473 68.0051 71.1137 69.2387C69.8801 70.4723 68.4153 71.4505 66.8032 72.1174C65.1911 72.7842 63.4633 73.1266 61.7187 73.125H13.2813C11.5367 73.1266 9.80889 72.7842 8.1968 72.1174C6.5847 71.4505 5.11993 70.4723 3.88633 69.2387C2.65272 68.0051 1.67449 66.5403 1.00763 64.9282C0.340769 63.3161 -0.00163839 61.5883 5.89399e-06 59.8437V13.2813C-0.00163839 11.5367 0.340769 9.80889 1.00763 8.1968C1.67449 6.5847 2.65272 5.11993 3.88633 3.88633C5.11993 2.65272 6.5847 1.67449 8.1968 1.00763C9.80889 0.340769 11.5367 -0.00163839 13.2813 5.89399e-06V5.89399e-06Z" fill="#001E36"/>
<path d="M16.875 51.2812V19.125C16.875 18.9063 16.9687 18.7812 17.1875 18.7812C17.7187 18.7812 18.2187 18.7812 18.9375 18.75C19.6562 18.7187 20.4687 18.7187 21.3125 18.6875C22.1562 18.6562 23.0625 18.6562 24.0312 18.625C25 18.5937 25.9375 18.5938 26.875 18.5938C29.4375 18.5938 31.5625 18.9062 33.3125 19.5625C34.8812 20.0952 36.3117 20.9706 37.5 22.125C38.507 23.1353 39.285 24.3502 39.7812 25.6875C40.2543 26.9898 40.4975 28.3644 40.5 29.75C40.5 32.4375 39.875 34.6562 38.625 36.4062C37.3692 38.1539 35.6159 39.4824 33.5937 40.2187C31.4687 41 29.125 41.2812 26.5625 41.2812C25.8125 41.2812 25.3125 41.2812 25 41.25C24.6875 41.2187 24.25 41.2187 23.6562 41.2187V51.25C23.6632 51.3014 23.6598 51.3537 23.6462 51.4038C23.6326 51.4539 23.609 51.5007 23.577 51.5415C23.5449 51.5823 23.505 51.6162 23.4595 51.6413C23.4141 51.6664 23.3641 51.6821 23.3125 51.6875H17.25C17 51.6875 16.875 51.5625 16.875 51.2812ZM23.6875 24.8125V35.3125C24.125 35.3437 24.5312 35.375 24.9062 35.375H26.5625C27.7824 35.3765 28.9951 35.1867 30.1562 34.8125C31.1525 34.5195 32.0425 33.9443 32.7187 33.1562C33.375 32.375 33.6875 31.3125 33.6875 29.9375C33.7169 28.961 33.4676 27.9963 32.9687 27.1562C32.4477 26.3449 31.6814 25.7209 30.7812 25.375C29.6081 24.9155 28.3528 24.7028 27.0937 24.75C26.2812 24.75 25.5625 24.75 24.9687 24.7812C24.5416 24.7533 24.1128 24.7638 23.6875 24.8125V24.8125Z" fill="#31A8FF"/>
<path d="M60 33.406C59.0565 32.9091 58.046 32.5512 57 32.3435C55.8512 32.0833 54.6778 31.9471 53.5 31.9373C52.8676 31.9154 52.2354 31.9892 51.625 32.156C51.2358 32.237 50.8905 32.4598 50.6563 32.781C50.4984 33.0346 50.412 33.3261 50.4063 33.6248C50.4208 33.9221 50.5303 34.2068 50.7188 34.4373C51.0149 34.7847 51.3758 35.0712 51.7813 35.281C52.5 35.656 53.25 35.9998 54 36.3123C55.6884 36.8806 57.3037 37.6463 58.8125 38.5935C59.8388 39.2388 60.6874 40.1304 61.2813 41.1873C61.7834 42.1842 62.0304 43.2901 62 44.406C62.0254 45.8831 61.6002 47.3328 60.7813 48.5622C59.9096 49.8097 58.6934 50.7762 57.2813 51.3435C55.75 51.9998 53.875 52.3435 51.625 52.3435C50.1984 52.3493 48.7747 52.2132 47.375 51.9372C46.2729 51.7468 45.2009 51.4105 44.1875 50.9373C44.0786 50.8826 43.988 50.7973 43.9269 50.6918C43.8658 50.5863 43.8369 50.4652 43.8438 50.3435V44.906C43.8411 44.8526 43.851 44.7993 43.8727 44.7505C43.8944 44.7016 43.9273 44.6585 43.9688 44.6248C44.0128 44.5991 44.0639 44.5883 44.1145 44.5939C44.1652 44.5995 44.2127 44.6213 44.25 44.656C45.4538 45.3657 46.7613 45.8823 48.125 46.1873C49.3291 46.5006 50.5684 46.6581 51.8125 46.656C53 46.656 53.8438 46.4997 54.4063 46.2185C54.6572 46.1026 54.8698 45.9176 55.0192 45.6851C55.1687 45.4526 55.2487 45.1824 55.25 44.906C55.25 44.4685 55 44.0623 54.5 43.656C54 43.2498 52.9688 42.781 51.4375 42.1873C49.8667 41.6337 48.3749 40.8773 47 39.9373C46.0208 39.2393 45.2094 38.3319 44.625 37.281C44.1263 36.294 43.8794 35.199 43.9063 34.0935C43.9109 32.76 44.2781 31.453 44.9688 30.3123C45.7626 29.0578 46.9021 28.0594 48.25 27.4373C49.7188 26.6873 51.5625 26.3435 53.7813 26.3435C55.078 26.3439 56.373 26.4379 57.6563 26.6248C58.5789 26.7496 59.482 26.9911 60.3438 27.3435C60.4811 27.3922 60.5934 27.4933 60.6563 27.6248C60.6923 27.7467 60.7133 27.8727 60.7188 27.9998V33.0935C60.7193 33.1542 60.7053 33.2142 60.6782 33.2685C60.651 33.3229 60.6114 33.37 60.5625 33.406C60.3807 33.4714 60.1818 33.4714 60 33.406Z" fill="#31A8FF"/>
</svg>
