<svg width="75" height="73" viewBox="0 0 75 73" fill="none" xmlns="http://www.w3.org/2000/svg">
<g clip-path="url(#clip0_23_192)">
<path d="M13.2813 5.88391e-06H61.7188C63.4633 -0.00163559 65.1911 0.340187 66.8032 1.00591C68.4153 1.67163 69.8801 2.64819 71.1137 3.87968C72.3473 5.11118 73.3255 6.57344 73.9924 8.18279C74.6593 9.79213 75.0017 11.517 75 13.2586V59.7415C75.0017 61.4831 74.6593 63.2079 73.9924 64.8172C73.3255 66.4266 72.3473 67.8888 71.1137 69.1203C69.8801 70.3518 68.4153 71.3284 66.8032 71.9941C65.1911 72.6598 63.4633 73.0016 61.7188 73H13.2813C11.5367 73.0016 9.8089 72.6598 8.1968 71.9941C6.5847 71.3284 5.11993 70.3518 3.88633 69.1203C2.65272 67.8888 1.67449 66.4266 1.00763 64.8172C0.340769 63.2079 -0.00163839 61.4831 5.89399e-06 59.7415V13.2586C-0.00163839 11.517 0.340769 9.79213 1.00763 8.18279C1.67449 6.57344 2.65272 5.11118 3.88633 3.87968C5.11993 2.64819 6.5847 1.67163 8.1968 1.00591C9.8089 0.340187 11.5367 -0.00163559 13.2813 5.88391e-06V5.88391e-06Z" fill="#00005B"/>
<path d="M17.8125 51.1936V19.0924C17.8125 18.874 17.9063 18.7492 18.125 18.7492C18.6563 18.7492 19.1562 18.7492 19.875 18.718C20.5937 18.6868 21.4062 18.6868 22.25 18.6556C23.0937 18.6244 24 18.6244 24.9688 18.5932C25.9375 18.562 26.875 18.562 27.8125 18.562C30.375 18.562 32.5 18.874 34.25 19.5291C35.8187 20.0609 37.2492 20.9348 38.4375 22.0872C39.4445 23.0958 40.2225 24.3086 40.7188 25.6436C41.1918 26.9437 41.435 28.316 41.4375 29.6992C41.4375 32.3821 40.8125 34.5971 39.5625 36.3441C38.3067 38.0887 36.5534 39.415 34.5313 40.15C32.4063 40.93 30.0625 41.2107 27.5 41.2107C26.75 41.2107 26.25 41.2107 25.9375 41.1795C25.625 41.1483 25.1875 41.1483 24.5937 41.1483V51.1624C24.6007 51.2138 24.5973 51.266 24.5837 51.316C24.5701 51.366 24.5465 51.4127 24.5145 51.4534C24.4824 51.4942 24.4425 51.5281 24.397 51.5531C24.3516 51.5781 24.3016 51.5938 24.25 51.5992H18.1875C17.9375 51.5992 17.8125 51.4744 17.8125 51.1936ZM24.625 24.7701V35.2522C25.0625 35.2834 25.4687 35.3146 25.8437 35.3146H27.5C28.72 35.316 29.9326 35.1266 31.0938 34.753C32.09 34.4606 32.98 33.8863 33.6563 33.0996C34.3125 32.3197 34.625 31.259 34.625 29.8864C34.6544 28.9115 34.4051 27.9485 33.9063 27.1099C33.3852 26.2999 32.6189 25.6769 31.7188 25.3317C30.5456 24.873 29.2903 24.6606 28.0313 24.7077C27.2187 24.7077 26.5 24.7077 25.9063 24.7389C25.4791 24.7111 25.0503 24.7215 24.625 24.7701V24.7701Z" fill="#9999FF"/>
<path d="M45.8125 26.5795H51.2813C51.4294 26.5831 51.5726 26.6333 51.6904 26.7229C51.8083 26.8125 51.8948 26.937 51.9375 27.0787C52.0329 27.3296 52.0959 27.5917 52.125 27.8586C52.1875 28.1705 52.25 28.5137 52.2813 28.8257C52.3125 29.1376 52.3438 29.5432 52.3438 29.9487C53.2821 28.8552 54.4159 27.9454 55.6875 27.2658C57.1401 26.4603 58.7759 26.0413 60.4375 26.0492C60.4889 26.0422 60.5412 26.0456 60.5913 26.0592C60.6414 26.0728 60.6882 26.0963 60.729 26.1283C60.7698 26.1603 60.8038 26.2002 60.8289 26.2455C60.8539 26.2909 60.8696 26.3408 60.875 26.3923V32.6004C60.875 32.85 60.7188 32.9436 60.375 32.9436C59.2414 32.9066 58.1076 33.0114 57 33.2556C56.0973 33.4416 55.2173 33.724 54.375 34.0979C53.7704 34.37 53.228 34.7629 52.7813 35.2522V51.1624C52.7813 51.4744 52.6563 51.5992 52.375 51.5992H46.2188C46.1611 51.6089 46.1021 51.6068 46.0453 51.593C45.9885 51.5792 45.9351 51.5541 45.8883 51.5191C45.8416 51.484 45.8024 51.4399 45.7733 51.3893C45.7441 51.3387 45.7256 51.2828 45.7188 51.2248V33.8171C45.7188 33.0684 45.7188 32.2885 45.6875 31.4774C45.6563 30.6663 45.6563 29.8551 45.625 29.044C45.625 28.3265 45.5625 27.6402 45.5 26.9227C45.4917 26.8858 45.4908 26.8476 45.4973 26.8104C45.5038 26.7732 45.5177 26.7376 45.538 26.7057C45.5583 26.6738 45.5847 26.6463 45.6158 26.6246C45.6468 26.603 45.6818 26.5876 45.7188 26.5795C45.7188 26.5483 45.7813 26.5483 45.8125 26.5795V26.5795Z" fill="#9999FF"/>
</g>
<defs>
<clipPath id="clip0_23_192">
<rect width="75" height="73" fill="white"/>
</clipPath>
</defs>
</svg>
