<svg width="32" height="21" viewBox="0 0 32 21" fill="currentColor" xmlns="http://www.w3.org/2000/svg">
  <path
    d="M24.8363 4.17276C25.2162 4.66395 25.558 5.19032 25.8538 5.74795C27.472 6.01164 28.4505 6.55164 28.3997 7.36026C28.347 8.19132 23.3528 10.5448 16.4495 12.1044C16.4427 12.1054 16.4368 12.1063 16.431 12.1083C9.52766 13.6679 4.00616 13.6894 3.60284 12.9618C3.20828 12.2528 3.85966 11.3446 5.20834 10.411C5.23472 9.78014 5.31578 9.15907 5.44859 8.55164C1.83922 10.2636 -0.310219 12.1728 0.0364684 13.7069C0.808906 17.1268 8.36947 17.4706 17.182 15.5135C17.1878 15.5125 17.1937 15.5106 17.1995 15.5096C17.2113 15.5066 17.223 15.5047 17.2347 15.5028C26.0326 13.4813 32.7122 9.9207 31.9388 6.50082C31.5931 4.9667 28.8314 4.16689 24.8363 4.17276Z"
    fill="current" />
  <path
    d="M16.1654 10.9677C16.1654 10.9667 16.1664 10.9667 16.1664 10.9667C20.2094 10.0537 23.4682 8.88861 25.4584 7.98236C25.435 7.84855 25.4086 7.71573 25.3793 7.58392C24.1957 2.34561 18.9896 -0.942453 13.7514 0.241172C8.51311 1.4248 5.22693 6.6308 6.40955 11.8681C6.43886 12.0009 6.47305 12.1318 6.50818 12.2627C8.69374 12.2255 12.1332 11.8779 16.1654 10.9677Z"
    fill="current" />
  <path
    d="M17.5033 16.6425H17.5023L17.4759 16.6483L17.4476 16.6551C14.7161 17.2616 12.097 17.6463 9.76007 17.7958C12.0111 19.7088 15.1009 20.578 18.2034 19.8778C21.306 19.1766 23.722 17.0633 24.9319 14.369C22.7581 15.2382 20.2298 16.0165 17.5033 16.6425Z"
    fill="current" />
</svg>